<mxfile host="www.draw.io" modified="2019-12-20T09:42:46.130Z" agent="Mozilla/5.0 (Windows NT 10.0; Win64; x64) AppleWebKit/537.36 (KHTML, like Gecko) Chrome/79.0.3945.79 Safari/537.36" etag="lVHLb_OwdJiOxdprlZWf" version="12.4.3" type="github" pages="1">
  <diagram id="gbND41S17aKnArsx9QjI" name="第 1 页">
    <mxGraphModel dx="1483" dy="829" grid="1" gridSize="10" guides="1" tooltips="1" connect="1" arrows="1" fold="1" page="1" pageScale="1" pageWidth="827" pageHeight="1169" math="0" shadow="0">
      <root>
        <mxCell id="0"/>
        <mxCell id="1" parent="0"/>
        <mxCell id="1SUrQ2w7OjG5A4AapJGg-2" value="&lt;h1&gt;简历收割&amp;amp;约面&lt;/h1&gt;" style="text;html=1;strokeColor=none;fillColor=none;spacing=5;spacingTop=-20;whiteSpace=wrap;overflow=hidden;rounded=0;" vertex="1" parent="1">
          <mxGeometry x="347.5" y="30" width="190" height="40" as="geometry"/>
        </mxCell>
        <mxCell id="1SUrQ2w7OjG5A4AapJGg-18" style="edgeStyle=orthogonalEdgeStyle;rounded=0;orthogonalLoop=1;jettySize=auto;html=1;exitX=0.5;exitY=1;exitDx=0;exitDy=0;" edge="1" parent="1" source="1SUrQ2w7OjG5A4AapJGg-9" target="1SUrQ2w7OjG5A4AapJGg-13">
          <mxGeometry relative="1" as="geometry"/>
        </mxCell>
        <mxCell id="1SUrQ2w7OjG5A4AapJGg-9" value="&lt;h1&gt;简历初步筛选&lt;/h1&gt;&lt;p&gt;&lt;font style=&quot;font-size: 16px&quot;&gt;查看身高、形象、年龄等是否符合要求&lt;/font&gt;&lt;/p&gt;" style="text;html=1;strokeColor=none;fillColor=none;spacing=5;spacingTop=-20;whiteSpace=wrap;overflow=hidden;rounded=0;" vertex="1" parent="1">
          <mxGeometry x="121.25" y="430" width="288.75" height="110" as="geometry"/>
        </mxCell>
        <mxCell id="1SUrQ2w7OjG5A4AapJGg-19" style="edgeStyle=orthogonalEdgeStyle;rounded=0;orthogonalLoop=1;jettySize=auto;html=1;exitX=0.5;exitY=1;exitDx=0;exitDy=0;entryX=0.5;entryY=0;entryDx=0;entryDy=0;" edge="1" parent="1" source="1SUrQ2w7OjG5A4AapJGg-13" target="1SUrQ2w7OjG5A4AapJGg-15">
          <mxGeometry relative="1" as="geometry"/>
        </mxCell>
        <mxCell id="1SUrQ2w7OjG5A4AapJGg-13" value="&lt;h1&gt;电话筛选&lt;/h1&gt;&lt;p&gt;&lt;/p&gt;&lt;ul style=&quot;font-size: 16px&quot;&gt;&lt;li&gt;询问身高、工作经验、口音、表达能力等；&lt;/li&gt;&lt;li&gt;未与各部门相关人员确认后再确认时间，电话里不明确说具体的面试时间；&lt;/li&gt;&lt;/ul&gt;&lt;p&gt;&lt;/p&gt;" style="text;html=1;strokeColor=none;fillColor=none;spacing=5;spacingTop=-20;whiteSpace=wrap;overflow=hidden;rounded=0;" vertex="1" parent="1">
          <mxGeometry x="85.63" y="610" width="360" height="120" as="geometry"/>
        </mxCell>
        <mxCell id="1SUrQ2w7OjG5A4AapJGg-15" value="&lt;h1&gt;约面试&lt;/h1&gt;&lt;p&gt;&lt;/p&gt;&lt;ul style=&quot;font-size: 16px&quot;&gt;&lt;li&gt;与相关部门负责人确定面试时间&lt;/li&gt;&lt;li&gt;发送面试信息&lt;/li&gt;&lt;li&gt;当天或第二天上午电话确认&lt;/li&gt;&lt;/ul&gt;&lt;p&gt;&lt;/p&gt;" style="text;html=1;strokeColor=none;fillColor=none;spacing=5;spacingTop=-20;whiteSpace=wrap;overflow=hidden;rounded=0;" vertex="1" parent="1">
          <mxGeometry x="128.44" y="840" width="274.37" height="150" as="geometry"/>
        </mxCell>
        <mxCell id="1SUrQ2w7OjG5A4AapJGg-16" value="&lt;h1&gt;&lt;span style=&quot;text-align: center ; white-space: nowrap&quot;&gt;平台在线信息回复&lt;/span&gt;&lt;br&gt;&lt;/h1&gt;&lt;p style=&quot;font-size: 16px&quot;&gt;&lt;font style=&quot;font-size: 16px&quot;&gt;问身高和工作经验&lt;/font&gt;&lt;/p&gt;&lt;p style=&quot;font-size: 16px&quot;&gt;&lt;font style=&quot;font-size: 16px&quot;&gt;让对方投递简历，没有简历PASS&lt;/font&gt;&lt;/p&gt;" style="text;html=1;strokeColor=none;fillColor=none;spacing=5;spacingTop=-20;whiteSpace=wrap;overflow=hidden;rounded=0;" vertex="1" parent="1">
          <mxGeometry x="480" y="340" width="250" height="120" as="geometry"/>
        </mxCell>
        <mxCell id="1SUrQ2w7OjG5A4AapJGg-23" style="edgeStyle=orthogonalEdgeStyle;rounded=0;orthogonalLoop=1;jettySize=auto;html=1;exitX=0.5;exitY=1;exitDx=0;exitDy=0;entryX=0.5;entryY=0;entryDx=0;entryDy=0;" edge="1" parent="1" source="1SUrQ2w7OjG5A4AapJGg-21" target="1SUrQ2w7OjG5A4AapJGg-9">
          <mxGeometry relative="1" as="geometry"/>
        </mxCell>
        <mxCell id="1SUrQ2w7OjG5A4AapJGg-25" style="edgeStyle=orthogonalEdgeStyle;rounded=0;orthogonalLoop=1;jettySize=auto;html=1;exitX=1;exitY=0.5;exitDx=0;exitDy=0;entryX=0.5;entryY=0;entryDx=0;entryDy=0;" edge="1" parent="1" source="1SUrQ2w7OjG5A4AapJGg-21" target="1SUrQ2w7OjG5A4AapJGg-16">
          <mxGeometry relative="1" as="geometry"/>
        </mxCell>
        <mxCell id="1SUrQ2w7OjG5A4AapJGg-21" value="&lt;h1&gt;&lt;span style=&quot;text-align: center ; white-space: nowrap&quot;&gt;各招聘平台&lt;/span&gt;&lt;br&gt;&lt;/h1&gt;&lt;p style=&quot;font-size: 16px&quot;&gt;&lt;ul&gt;&lt;li&gt;&lt;font style=&quot;font-size: 16px&quot;&gt;58同城&lt;/font&gt;&lt;/li&gt;&lt;li&gt;&lt;font style=&quot;font-size: 16px&quot;&gt;广西人才网&lt;/font&gt;&lt;/li&gt;&lt;li&gt;&lt;font style=&quot;font-size: 16px&quot;&gt;智联招聘&lt;/font&gt;&lt;/li&gt;&lt;/ul&gt;&lt;/p&gt;" style="text;html=1;strokeColor=none;fillColor=none;spacing=5;spacingTop=-20;whiteSpace=wrap;overflow=hidden;rounded=0;" vertex="1" parent="1">
          <mxGeometry x="156.88" y="180" width="217.5" height="160" as="geometry"/>
        </mxCell>
      </root>
    </mxGraphModel>
  </diagram>
</mxfile>
